<svg xmlns="http://www.w3.org/2000/svg" xmlns:xlink="http://www.w3.org/1999/xlink" version="1.1" x="0px" y="0px" viewBox="0 0 100 125" enable-background="new 0 0 100 100" xml:space="preserve"><polygon points="93.5,70.762 84.164,55.229 74.829,55.229 84.164,70.762 74.829,86.295 84.164,86.295 "/><polygon points="70.515,70.762 61.179,86.295 70.515,86.295 79.851,70.762 70.515,55.229 61.179,55.229 "/><polygon points="47.53,55.229 56.866,70.762 47.53,86.295 56.866,86.295 66.201,70.762 56.866,55.229 "/><path d="M44.53,84.492l8.252-13.73l-8.252-13.73l-3.187-5.303h6.187h7.462h1.873h1.98h2.334h5.722  C64.805,37.072,52.212,25.8,36.975,25.8C20.27,25.8,6.728,39.343,6.728,56.048S20.27,86.295,36.975,86.295  c2.398,0,4.727-0.29,6.964-0.819L44.53,84.492z M41.457,34.5l-0.149,11.209c-4.24-0.419-8.45,0.889-11.543,3.489L21.74,41.18  C26.79,36.139,34.177,33.52,41.457,34.5z M15.821,52.02c0.438-2.102,1.184-4.055,2.165-5.849l9.044,6.146  c-0.834,1.311-1.464,2.779-1.802,4.403c-0.288,1.385-0.363,2.762-0.275,4.107l-8.734,1.634C15.265,59.17,15.074,55.607,15.821,52.02  z M27.214,75.756c-3.78-1.92-6.852-4.883-8.92-8.445l7.305-2.959c0.829,2.657,2.376,5.039,4.457,6.884L27.214,75.756z   M32.622,77.656c-0.439-0.091-0.869-0.199-1.296-0.315l1.64-4.074c1.255,0.671,2.619,1.184,4.082,1.489  c2.55,0.531,5.081,0.478,7.471-0.044l0.385,1.919C41.125,78.106,36.891,78.545,32.622,77.656z"/><text x="0" y="115" fill="#000000" font-size="5px" font-weight="bold" font-family="'Helvetica Neue', Helvetica, Arial-Unicode, Arial, Sans-serif">Created by Alina Oleynik</text><text x="0" y="120" fill="#000000" font-size="5px" font-weight="bold" font-family="'Helvetica Neue', Helvetica, Arial-Unicode, Arial, Sans-serif">from the Noun Project</text></svg>